<svg width="24" height="24" viewBox="0 0 24 24" fill="none" xmlns="http://www.w3.org/2000/svg">
<path d="M14.4075 5.25721C14.2098 5.25162 14.0121 5.26342 13.8165 5.29246C13.3027 5.36896 12.8205 5.56021 12.3255 5.71846C11.8305 5.87671 11.3392 5.99971 10.9732 5.99971C10.74 5.99971 10.3177 5.99371 9.89175 5.99821C9.4665 6.00271 9.05925 6.00871 8.69925 6.07471C8.06475 6.19021 7.515 6.46921 7.1295 6.89296C6.74325 7.31746 6.5385 7.84996 6.444 8.40346L6.4425 8.41396L5.991 11.276C3.633 11.4095 1.92525 12.8585 0.998999 14.8032C0.808361 15.196 0.721442 15.631 0.746517 16.0669C0.771592 16.5027 0.907827 16.9249 1.14225 17.2932C1.59225 17.9847 2.3355 18.4535 3.18975 18.6387C9.32025 19.9647 14.5717 19.559 20.2852 18.7482H20.304V18.7467L20.3377 18.7437L20.3557 18.7422L20.3707 18.7392C20.4442 18.7271 20.5155 18.7041 20.5822 18.671C21.5512 18.4685 22.275 18.062 22.6935 17.5107C23.1457 16.9137 23.25 16.2447 23.25 15.7362C23.25 13.1862 21.2865 10.1112 17.6662 9.13471L17.2267 7.42921L17.2222 7.41421C16.8765 6.17746 15.759 5.29696 14.4075 5.25721ZM14.3895 6.74521C15.1597 6.73471 15.5835 7.13146 15.777 7.81771L15.7777 7.81921L16.2975 9.82996L16.299 9.83446C16.3066 9.90244 16.3235 9.96906 16.3492 10.0325L16.4722 10.5072L16.4872 10.5687C16.5712 10.8702 16.3042 11.4687 15.951 11.6757C15.735 11.8017 14.9002 12.119 13.929 12.347C13.02 12.56 11.9542 12.7205 10.9815 12.7392C10.0485 12.068 8.94825 11.519 7.503 11.3262L7.923 8.65696C7.98525 8.29621 8.09325 8.06221 8.238 7.90246C8.3835 7.74346 8.5815 7.62046 8.96925 7.54996C9.09525 7.52671 9.50925 7.50271 9.90825 7.49821C10.3072 7.49371 10.713 7.49971 10.9732 7.49971C11.6332 7.49971 12.2452 7.31971 12.7822 7.14796C13.3192 6.97621 13.8007 6.81046 14.0377 6.77446C14.1622 6.75596 14.2795 6.74621 14.3895 6.74521ZM18.114 10.8672C20.538 11.8947 21.75 14.1597 21.75 15.7362C21.75 16.0437 21.69 16.352 21.498 16.6055C21.309 16.8545 20.9505 17.1147 20.1502 17.2497C17.8837 17.4087 16.4362 17.0097 15.2902 16.3445C16.2352 16.1442 17.0805 15.842 17.6407 15.5157L17.6422 15.5142C18.504 15.0102 18.9375 13.9835 18.6697 13.019L18.114 10.8672ZM17.0475 12.7362L17.22 13.4075L17.2237 13.421C17.31 13.7307 17.1862 14.0435 16.8855 14.219C16.3815 14.513 14.9017 14.999 13.6042 15.0597C13.4672 14.9346 13.3314 14.8081 13.197 14.6802C13.0042 14.4972 12.7957 14.3052 12.597 14.1162C13.1598 14.0397 13.7187 13.9366 14.2717 13.8072C15.3322 13.5582 16.164 13.2875 16.7062 12.971H16.7077C16.8277 12.901 16.941 12.8227 17.0475 12.7362ZM6.3375 12.7497C8.112 12.7497 9.2355 13.2537 10.2112 13.9947C10.2755 14.0672 10.3532 14.1265 10.44 14.1695C11.0175 14.6397 11.556 15.1895 12.1612 15.7655C12.3487 15.9455 12.546 16.1237 12.753 16.3002C12.8193 16.3802 12.9016 16.4456 12.9945 16.4922L12.999 16.4952C13.5763 16.9689 14.1994 17.384 14.859 17.7342C11.1765 18.0132 7.527 18.0432 3.507 17.1732C2.9955 17.063 2.59725 16.781 2.39925 16.4757C2.20125 16.172 2.1495 15.8757 2.35275 15.4497C3.15225 13.769 4.356 12.7497 6.3375 12.7497Z" fill="#FF5B0F"/>
</svg>
