<svg width="71" height="51" viewBox="0 0 71 51" fill="none" xmlns="http://www.w3.org/2000/svg">
<path d="M31.3001 22.7864C29.5108 21.3527 27.4251 20.5952 25.2751 20.5952C20.4376 20.5952 16.342 24.5152 15.0895 30.3489C14.8676 31.3864 15.0626 32.4633 15.6251 33.3052C16.172 34.1245 16.9895 34.5952 17.8676 34.5952H52.0001C45.5495 34.5952 42.3126 32.2783 37.4258 28.0664L31.3001 22.7864ZM45.9658 21.6433L44.2751 11.8577C44.1842 11.3267 43.9868 10.8195 43.695 10.3666C43.4032 9.91378 43.023 9.52453 42.577 9.22224C42.1311 8.91995 41.6287 8.71085 41.1 8.6075C40.5712 8.50415 40.0271 8.50867 39.5001 8.62079L27.5533 11.1577C26.7281 11.3328 25.9793 11.7643 25.4142 12.3906C24.849 13.0168 24.4962 13.8057 24.4064 14.6445L23.9758 18.7202C24.407 18.6683 24.832 18.5952 25.2751 18.5952C27.887 18.5952 30.4001 19.5045 32.6058 21.2714L38.7308 26.5514C43.1726 30.3789 45.9314 32.5952 52.0001 32.5952C52.7958 32.5952 53.5589 32.2791 54.1215 31.7165C54.6841 31.1539 55.0001 30.3908 55.0001 29.5952C55.0001 28.0083 53.1501 22.137 45.9658 21.6433Z" fill="#9E370E"/>
<path d="M11.998 41.7793C11.957 41.3053 11.7816 40.9294 11.4717 40.6514C11.1663 40.3734 10.7539 40.2344 10.2344 40.2344C9.7832 40.2344 9.39583 40.346 9.07227 40.5693C8.75326 40.7926 8.50944 41.1162 8.34082 41.54C8.1722 41.9593 8.08789 42.4629 8.08789 43.0508C8.08789 43.9714 8.27246 44.6709 8.6416 45.1494C9.0153 45.6279 9.54167 45.8672 10.2207 45.8672C10.7129 45.8672 11.1139 45.7419 11.4238 45.4912C11.7383 45.236 11.9297 44.8874 11.998 44.4453L14.6367 44.4727C14.5866 45.0697 14.3815 45.6507 14.0215 46.2158C13.666 46.7764 13.1579 47.2367 12.4971 47.5967C11.8408 47.9567 11.0638 48.1367 10.166 48.1367C9.25 48.1367 8.43197 47.9385 7.71191 47.542C6.99186 47.1455 6.42676 46.5645 6.0166 45.7988C5.611 45.0332 5.4082 44.1172 5.4082 43.0508C5.4082 41.9844 5.61556 41.0684 6.03027 40.3027C6.44499 39.5371 7.01237 38.9561 7.73242 38.5596C8.45247 38.1631 9.26367 37.9648 10.166 37.9648C10.9909 37.9648 11.7269 38.1152 12.374 38.416C13.0212 38.7122 13.5407 39.1475 13.9326 39.7217C14.3291 40.2959 14.5638 40.9818 14.6367 41.7793H11.998ZM19.4629 48.1367C18.679 48.1367 17.9977 47.9772 17.4189 47.6582C16.8447 47.3392 16.4027 46.8926 16.0928 46.3184C15.7874 45.7396 15.6348 45.0697 15.6348 44.3086C15.6348 43.5475 15.7874 42.8799 16.0928 42.3057C16.4027 41.7269 16.8447 41.278 17.4189 40.959C17.9977 40.64 18.679 40.4805 19.4629 40.4805C20.2467 40.4805 20.9258 40.64 21.5 40.959C22.0742 41.278 22.514 41.7269 22.8193 42.3057C23.1247 42.8799 23.2773 43.5475 23.2773 44.3086C23.2773 45.0697 23.1247 45.7396 22.8193 46.3184C22.514 46.8926 22.0742 47.3392 21.5 47.6582C20.9258 47.9772 20.2467 48.1367 19.4629 48.1367ZM19.4766 46.2227C19.8366 46.2227 20.1191 46.0495 20.3242 45.7031C20.5339 45.3568 20.6387 44.8874 20.6387 44.2949C20.6387 43.6979 20.5339 43.2285 20.3242 42.8867C20.1191 42.5404 19.8366 42.3672 19.4766 42.3672C19.1029 42.3672 18.8089 42.5404 18.5947 42.8867C18.3805 43.2285 18.2734 43.6979 18.2734 44.2949C18.2734 44.8874 18.3805 45.3568 18.5947 45.7031C18.8089 46.0495 19.1029 46.2227 19.4766 46.2227ZM27.0918 48.0957C26.5449 48.0957 26.0482 47.9544 25.6016 47.6719C25.1595 47.3848 24.8063 46.9564 24.542 46.3867C24.2822 45.8125 24.1523 45.1152 24.1523 44.2949C24.1523 43.4427 24.2868 42.7318 24.5557 42.1621C24.8245 41.5879 25.18 41.1641 25.6221 40.8906C26.0641 40.6172 26.5449 40.4805 27.0645 40.4805C27.5931 40.4805 28.0352 40.6104 28.3906 40.8701C28.7461 41.1299 29.0013 41.4603 29.1562 41.8613H29.1973V38.1016H31.7812V48H29.2246V46.7832H29.1562C28.9967 47.1751 28.7393 47.4919 28.3838 47.7334C28.0329 47.9749 27.6022 48.0957 27.0918 48.0957ZM28.0215 46.1133C28.4089 46.1133 28.7119 45.9492 28.9307 45.6211C29.154 45.293 29.2656 44.8464 29.2656 44.2812C29.2656 43.7207 29.154 43.2809 28.9307 42.9619C28.7119 42.6383 28.4089 42.4766 28.0215 42.4766C27.6387 42.4766 27.3424 42.6361 27.1328 42.9551C26.9232 43.2741 26.8184 43.7161 26.8184 44.2812C26.8184 44.8509 26.9232 45.2998 27.1328 45.6279C27.347 45.9515 27.6432 46.1133 28.0215 46.1133ZM36.6758 48.1367C35.8919 48.1367 35.2129 47.984 34.6387 47.6787C34.069 47.3734 33.6292 46.9336 33.3193 46.3594C33.014 45.7852 32.8613 45.1016 32.8613 44.3086C32.8613 43.5475 33.014 42.8776 33.3193 42.2988C33.6292 41.7201 34.0667 41.2734 34.6318 40.959C35.2015 40.64 35.8646 40.4805 36.6211 40.4805C37.3548 40.4805 37.9974 40.6331 38.5488 40.9385C39.1003 41.2393 39.5264 41.6768 39.8271 42.251C40.1325 42.8206 40.2852 43.4974 40.2852 44.2812V44.8965H35.418V44.9922C35.418 45.3796 35.5342 45.6963 35.7666 45.9424C36.0036 46.1839 36.3249 46.3047 36.7305 46.3047C37.013 46.3047 37.2591 46.2454 37.4688 46.127C37.6784 46.0085 37.8242 45.8444 37.9062 45.6348H40.2715C40.1849 46.1452 39.9844 46.5895 39.6699 46.9678C39.36 47.3415 38.9499 47.6309 38.4395 47.8359C37.929 48.0365 37.3411 48.1367 36.6758 48.1367ZM37.8926 43.4473C37.888 43.2285 37.8311 43.0326 37.7217 42.8594C37.6169 42.6862 37.4733 42.5518 37.291 42.4561C37.1087 42.3604 36.9036 42.3125 36.6758 42.3125C36.4479 42.3125 36.2383 42.3626 36.0469 42.4629C35.86 42.5586 35.7096 42.693 35.5957 42.8662C35.4818 43.0348 35.4225 43.2285 35.418 43.4473H37.8926ZM41.3652 38.1016H45.6035C46.3418 38.1016 46.9684 38.2041 47.4834 38.4092C48.0029 38.6097 48.3926 38.8968 48.6523 39.2705C48.9167 39.6396 49.0488 40.0794 49.0488 40.5898C49.0488 40.9499 48.9691 41.2803 48.8096 41.5811C48.6501 41.8773 48.4268 42.1279 48.1396 42.333C47.8525 42.5335 47.5221 42.6725 47.1484 42.75V42.8457C47.5632 42.8594 47.9437 42.9665 48.29 43.167C48.641 43.3675 48.9189 43.6455 49.124 44.001C49.3291 44.3519 49.4316 44.7552 49.4316 45.2109C49.4316 45.7487 49.2904 46.2295 49.0078 46.6533C48.7298 47.0726 48.3288 47.403 47.8047 47.6445C47.2806 47.8815 46.6654 48 45.959 48H41.3652V38.1016ZM45.2891 45.9082C45.7493 45.9082 46.0957 45.8216 46.3281 45.6484C46.5651 45.4753 46.6836 45.2201 46.6836 44.8828C46.6836 44.5228 46.5628 44.2448 46.3213 44.0488C46.0798 43.8483 45.7493 43.748 45.3301 43.748H43.9629V45.9082H45.2891ZM45.125 42.1211C45.4941 42.1211 45.7926 42.0345 46.0205 41.8613C46.2529 41.6882 46.3691 41.4466 46.3691 41.1367C46.3691 40.8268 46.2598 40.5853 46.041 40.4121C45.8223 40.2389 45.5306 40.1523 45.166 40.1523H43.9629V42.1211H45.125ZM53.998 48.1367C53.2142 48.1367 52.5329 47.9772 51.9541 47.6582C51.3799 47.3392 50.9378 46.8926 50.6279 46.3184C50.3226 45.7396 50.1699 45.0697 50.1699 44.3086C50.1699 43.5475 50.3226 42.8799 50.6279 42.3057C50.9378 41.7269 51.3799 41.278 51.9541 40.959C52.5329 40.64 53.2142 40.4805 53.998 40.4805C54.7819 40.4805 55.4609 40.64 56.0352 40.959C56.6094 41.278 57.0492 41.7269 57.3545 42.3057C57.6598 42.8799 57.8125 43.5475 57.8125 44.3086C57.8125 45.0697 57.6598 45.7396 57.3545 46.3184C57.0492 46.8926 56.6094 47.3392 56.0352 47.6582C55.4609 47.9772 54.7819 48.1367 53.998 48.1367ZM54.0117 46.2227C54.3717 46.2227 54.6543 46.0495 54.8594 45.7031C55.069 45.3568 55.1738 44.8874 55.1738 44.2949C55.1738 43.6979 55.069 43.2285 54.8594 42.8867C54.6543 42.5404 54.3717 42.3672 54.0117 42.3672C53.638 42.3672 53.3441 42.5404 53.1299 42.8867C52.9157 43.2285 52.8086 43.6979 52.8086 44.2949C52.8086 44.8874 52.9157 45.3568 53.1299 45.7031C53.3441 46.0495 53.638 46.2227 54.0117 46.2227ZM60.1777 50.7891C59.6719 50.7891 59.248 50.7754 58.9062 50.748V48.8203C59.1432 48.8385 59.4668 48.8477 59.877 48.8477C60.0866 48.8477 60.2507 48.8226 60.3691 48.7725C60.4922 48.7223 60.5879 48.6152 60.6562 48.4512L60.7109 48.3145L58.0996 40.5762H60.793L62.0371 45.7578H62.1191L63.3906 40.5762H66.0977L63.3633 48.6426C63.14 49.3171 62.7777 49.8434 62.2764 50.2217C61.7751 50.5999 61.0755 50.7891 60.1777 50.7891Z" fill="url(#paint0_linear_93_6448)"/>
<defs>
<linearGradient id="paint0_linear_93_6448" x1="35.5" y1="34" x2="35.5" y2="43" gradientUnits="userSpaceOnUse">
<stop stop-color="#682607"/>
<stop offset="1" stop-color="#BD4913"/>
</linearGradient>
</defs>
</svg>
