<svg width="24" height="24" viewBox="0 0 24 24" fill="none" xmlns="http://www.w3.org/2000/svg">
<path d="M19.933 13.0417C19.7442 14.4816 19.1669 15.843 18.2632 16.9798C17.3594 18.1166 16.1633 18.986 14.803 19.4947C13.4427 20.0034 11.9696 20.1321 10.5417 19.8672C9.11374 19.6023 7.78486 18.9537 6.69755 17.991C5.61024 17.0282 4.80551 15.7876 4.36967 14.4023C3.93383 13.017 3.88332 11.5391 4.22355 10.1272C4.56379 8.71537 5.28194 7.42275 6.30097 6.38801C7.32001 5.35327 8.6015 4.61544 10.008 4.25366C13.907 3.25366 17.943 5.26066 19.433 9.00066" stroke="black" stroke-width="2" stroke-linecap="round" stroke-linejoin="round"/>
<path d="M20 4V9H15" stroke="black" stroke-width="2" stroke-linecap="round" stroke-linejoin="round"/>
</svg>
